<svg width="400" height="400" viewBox="0 0 400 400" fill="none" xmlns="http://www.w3.org/2000/svg">
<rect width="400" height="400" fill="#011D22"/>
<path d="M132.27 86.7832C131.673 86.7832 131.374 86.5699 131.374 86.1432C131.374 85.6739 131.801 85.3752 132.654 85.2472L133.934 85.0552C134.873 84.9272 135.513 84.7139 135.854 84.4152C136.238 84.0739 136.516 83.4552 136.686 82.5592L145.39 44.9272C145.561 44.2019 145.582 43.6472 145.454 43.2632C145.326 42.8792 144.772 42.6019 143.79 42.4312L142.51 42.1752C141.956 42.0472 141.678 41.8126 141.678 41.4712C141.678 40.9592 142.062 40.7032 142.83 40.7032H155.31C158.852 40.7032 161.561 41.6632 163.438 43.5832C165.316 45.5032 166.254 47.9139 166.254 50.8152C166.254 53.5032 165.55 55.9992 164.142 58.3032C162.777 60.5646 160.857 62.3992 158.382 63.8072C155.95 65.2152 153.092 65.9192 149.806 65.9192H146.03C145.348 65.9192 144.9 66.2819 144.686 67.0072L141.102 82.3032C140.889 83.2419 140.932 83.8819 141.23 84.2232C141.572 84.5646 142.276 84.7992 143.342 84.9272L146.414 85.3112C146.798 85.3539 146.99 85.5672 146.99 85.9512C146.99 86.5059 146.606 86.7832 145.838 86.7832H132.27ZM146.158 60.7992C145.902 61.9086 146.009 62.7832 146.478 63.4232C146.99 64.0206 148.036 64.3192 149.614 64.3192C151.748 64.3192 153.561 63.8712 155.054 62.9752C156.59 62.0792 157.828 60.9272 158.766 59.5192C159.748 58.0686 160.452 56.5326 160.878 54.9112C161.348 53.2472 161.582 51.6686 161.582 50.1752C161.582 47.8286 160.964 45.9299 159.726 44.4792C158.489 43.0286 156.676 42.3032 154.286 42.3032C151.684 42.3032 150.19 43.1566 149.806 44.8632L146.158 60.7992ZM171.038 87.3592C169.46 87.3592 168.372 86.6552 167.774 85.2472C167.22 83.7966 167.262 81.8979 167.902 79.5512L172.958 60.9912C173.3 59.7539 173.385 58.7939 173.214 58.1112C173.044 57.4286 172.66 57.0872 172.062 57.0872C171.081 57.0872 170.078 57.8339 169.054 59.3272C168.073 60.8206 167.22 62.8899 166.494 65.5352C166.366 66.0046 166.089 66.2392 165.662 66.2392C165.065 66.2392 164.873 65.8126 165.086 64.9592C166.068 61.3752 167.348 58.6232 168.926 56.7032C170.548 54.7406 172.318 53.7592 174.238 53.7592C175.774 53.7592 176.798 54.4632 177.31 55.8712C177.822 57.2792 177.737 59.1992 177.054 61.6312L171.934 80.1912C171.124 83.1352 171.401 84.6072 172.766 84.6072C173.62 84.6072 174.601 84.0312 175.71 82.8792C176.82 81.7272 177.972 80.1486 179.166 78.1432C180.404 76.1379 181.62 73.8552 182.814 71.2952C184.009 68.7352 185.097 66.0472 186.078 63.2312C187.06 60.4152 187.87 57.6206 188.51 54.8472C188.638 54.3779 188.937 54.1432 189.406 54.1432H191.966C192.564 54.1432 192.798 54.4206 192.67 54.9752L186.654 80.7032C186.185 82.7086 186.548 83.7112 187.742 83.7112C189.534 83.7112 191.412 81.0019 193.374 75.5832C193.545 75.0286 193.844 74.7512 194.27 74.7512C194.526 74.7512 194.697 74.8579 194.782 75.0712C194.91 75.2846 194.91 75.5619 194.782 75.9032C193.63 79.5299 192.265 82.3459 190.686 84.3512C189.108 86.3566 187.444 87.3592 185.694 87.3592C182.622 87.3592 181.598 85.1192 182.622 80.6392L184.286 73.5352C184.372 73.2366 184.308 73.0659 184.094 73.0232C183.924 72.9806 183.774 73.0872 183.646 73.3432C181.172 78.4632 178.889 82.0899 176.798 84.2232C174.708 86.3139 172.788 87.3592 171.038 87.3592ZM200.914 87.4232C199.506 87.4232 198.504 86.9112 197.906 85.8872C197.309 84.8206 197.288 83.0926 197.842 80.7032L205.97 45.8232C206.184 45.0552 206.184 44.5219 205.97 44.2232C205.8 43.9246 205.416 43.7539 204.818 43.7112L202.898 43.5192C202.258 43.4766 201.981 43.1992 202.066 42.6872C202.152 42.3032 202.45 42.0686 202.962 41.9832C204.498 41.7272 205.864 41.4286 207.058 41.0872C208.253 40.7032 209.213 40.2126 209.938 39.6152C210.28 39.3592 210.6 39.2312 210.898 39.2312C211.41 39.2312 211.602 39.5512 211.474 40.1912L202.002 80.7672C201.789 81.7059 201.746 82.4526 201.874 83.0072C202.045 83.5192 202.45 83.7752 203.09 83.7752C203.858 83.7752 204.69 83.2206 205.586 82.1112C206.525 80.9592 207.57 78.8046 208.722 75.6472C208.893 75.0926 209.192 74.8152 209.618 74.8152C210.258 74.8152 210.429 75.1992 210.13 75.9672C209.234 78.8686 208.232 81.1726 207.122 82.8792C206.056 84.5432 204.989 85.7166 203.922 86.3992C202.856 87.0819 201.853 87.4232 200.914 87.4232ZM218.977 87.3592C217.569 87.3592 216.076 87.1459 214.497 86.7192C212.961 86.2926 211.788 85.7592 210.977 85.1192C210.679 84.8632 210.551 84.4792 210.593 83.9672L212.001 75.5832C212.087 75.0286 212.343 74.7512 212.769 74.7512C213.239 74.7512 213.473 75.0499 213.473 75.6472L213.601 78.7192C213.687 81.1512 214.263 82.9432 215.329 84.0952C216.439 85.2046 217.783 85.7592 219.361 85.7592C220.727 85.7592 221.9 85.3326 222.881 84.4792C223.863 83.5832 224.353 82.2819 224.353 80.5752C224.353 79.5939 224.204 78.6979 223.905 77.8872C223.607 77.0339 223.137 76.1379 222.497 75.1992C221.857 74.2179 220.983 73.0446 219.873 71.6792C218.423 69.8019 217.335 68.2019 216.609 66.8792C215.927 65.5139 215.585 64.1059 215.585 62.6552C215.585 59.9672 216.417 57.8126 218.081 56.1912C219.788 54.5699 221.943 53.7592 224.545 53.7592C225.697 53.7592 226.807 53.9299 227.873 54.2712C228.983 54.6126 229.9 55.1246 230.625 55.8072C231.009 56.1059 231.137 56.4899 231.009 56.9592L229.217 65.5352C229.089 66.0899 228.833 66.3672 228.449 66.3672C228.065 66.3672 227.831 66.0686 227.745 65.4712L227.553 62.3992C227.383 59.8392 227.041 58.0046 226.529 56.8952C226.06 55.7859 225.057 55.2312 223.521 55.2312C222.156 55.2312 221.047 55.7006 220.193 56.6392C219.34 57.5779 218.913 58.7086 218.913 60.0312C218.913 61.4392 219.297 62.7406 220.065 63.9352C220.833 65.0872 221.879 66.5592 223.201 68.3512C224.951 70.6552 226.124 72.4899 226.721 73.8552C227.361 75.2206 227.681 76.6072 227.681 78.0152C227.681 79.8072 227.276 81.4072 226.465 82.8152C225.697 84.2232 224.652 85.3326 223.329 86.1432C222.007 86.9539 220.556 87.3592 218.977 87.3592ZM240.722 87.3592C238.077 87.3592 235.986 86.2712 234.45 84.0952C232.914 81.8766 232.146 78.8899 232.146 75.1352C232.146 72.3619 232.594 69.6952 233.49 67.1352C234.386 64.5752 235.559 62.2926 237.01 60.2872C238.503 58.2819 240.146 56.7032 241.938 55.5512C243.773 54.3566 245.607 53.7592 247.442 53.7592C250.087 53.7592 252.178 54.8472 253.714 57.0232C255.25 59.1992 256.018 62.1859 256.018 65.9832C256.018 68.7566 255.57 71.4232 254.674 73.9832C253.778 76.5432 252.583 78.8259 251.09 80.8312C249.639 82.8366 247.997 84.4366 246.162 85.6312C244.37 86.7832 242.557 87.3592 240.722 87.3592ZM240.594 85.8232C241.959 85.8232 243.282 85.1619 244.562 83.8392C245.885 82.5166 247.079 80.7672 248.146 78.5912C249.213 76.4152 250.066 74.0046 250.706 71.3592C251.346 68.6712 251.666 65.9832 251.666 63.2952C251.666 57.9619 250.279 55.2952 247.506 55.2952C246.183 55.2952 244.861 55.9566 243.538 57.2792C242.215 58.5592 241.021 60.2872 239.954 62.4632C238.93 64.6392 238.098 67.0712 237.458 69.7592C236.818 72.4046 236.498 75.0712 236.498 77.7592C236.498 83.1352 237.863 85.8232 240.594 85.8232Z" fill="white"/>
<path d="M286.522 234.783C286.522 236.507 285.837 238.16 284.618 239.379C283.399 240.598 281.746 241.283 280.022 241.283H258.036L227.34 302.692C226.799 303.772 225.969 304.68 224.941 305.314C223.914 305.949 222.73 306.284 221.522 306.283H221.197C219.936 306.221 218.721 305.793 217.699 305.051C216.678 304.31 215.894 303.287 215.445 302.107L168.994 180.151L142.937 237.473C142.421 238.608 141.589 239.572 140.54 240.247C139.491 240.923 138.27 241.283 137.022 241.283H111.022C109.298 241.283 107.645 240.598 106.426 239.379C105.207 238.16 104.522 236.507 104.522 234.783C104.522 233.059 105.207 231.406 106.426 230.187C107.645 228.968 109.298 228.283 111.022 228.283H132.838L163.607 160.594C164.138 159.426 165.002 158.441 166.091 157.763C167.18 157.085 168.446 156.745 169.728 156.785C171.01 156.825 172.252 157.243 173.297 157.988C174.342 158.732 175.143 159.769 175.6 160.968L222.327 283.655L248.205 231.891C248.743 230.808 249.572 229.896 250.6 229.259C251.628 228.622 252.813 228.284 254.022 228.283H280.022C281.746 228.283 283.399 228.968 284.618 230.187C285.837 231.406 286.522 233.059 286.522 234.783Z" fill="#FF4500"/>
<path d="M55.5616 234.783C53.9471 281.928 79.9734 376.217 196.995 376.217C314.017 376.217 337.09 282.719 335.475 235.575" stroke="#FF4500" stroke-width="10" stroke-linecap="round"/>
</svg>
